<?xml version="1.0" encoding="utf-8"?>
<!-- Generator: Adobe Illustrator 22.1.0, SVG Export Plug-In . SVG Version: 6.00 Build 0)  -->
<svg version="1.1" id="Vektor-Smartobjekt_xA0_Bild_1_"
	 xmlns="http://www.w3.org/2000/svg" xmlns:xlink="http://www.w3.org/1999/xlink" x="0px" y="0px" viewBox="0 0 160 67"
	 style="enable-background:new 0 0 160 67;" xml:space="preserve">
<style type="text/css">
	.st0{opacity:0.3;fill:#4471A2;enable-background:new    ;}
	.st1{fill:#4471A2;}
	.st2{fill:#70A1D8;}
	.st3{fill:#C9262C;}
	.st4{display:none;}
	.st5{display:inline;opacity:0.4;fill:#FFFFFF;enable-background:new    ;}
	.st6{fill:#FFFFFF;}
</style>
<polyline class="st0" points="4.2,63.8 152.5,55.5 152.5,49 "/>
<polygon id="Eckerl" class="st1" points="152.1,49.6 152.1,58.9 160,49.7 "/>
<rect id="Fläche" x="1.9" y="9.9" transform="matrix(0.996 -8.930042e-02 8.930042e-02 0.996 -2.6607 7.2828)" class="st2" width="156.3" height="47"/>
<path class="st3" d="M134.8,19.4c0,3.3,2.7,5.9,5.9,5.9c3.3,0,5.9-2.7,5.9-5.9c0-3.3-2.6-5.9-5.9-5.9
	C137.5,13.5,134.8,16.2,134.8,19.4L134.8,19.4z M131.1,19.4c0-5.3,4.3-9.7,9.7-9.7c5.3,0,9.7,4.3,9.7,9.7c0,5.3-4.3,9.7-9.7,9.7
	C135.4,29.1,131.1,24.8,131.1,19.4L131.1,19.4z"/>
<path class="st3" d="M137.6,19.4c0-1.7,1.4-3.1,3.1-3.1c1.7,0,3.1,1.4,3.1,3.1c0,1.7-1.4,3.1-3.1,3.1S137.6,21.2,137.6,19.4
	L137.6,19.4z"/>
<g class="st4">
	<path class="st5" d="M27.2,32.5c0,0.5,0,0.9-0.1,1.2c-0.1,0.4-0.3,0.6-0.5,0.9c-0.2,0.2-0.6,0.4-0.9,0.6c-0.4,0.1-0.8,0.2-1.2,0.3
		l-3.1,0.3l-0.9-9.1l2.8-0.3c0.4,0,0.8,0,1.2,0c0.4,0,0.7,0.1,1,0.3c0.3,0.1,0.5,0.4,0.7,0.6s0.3,0.6,0.3,1c0,0.3,0,0.6,0,0.8
		s-0.1,0.5-0.3,0.6c-0.1,0.2-0.3,0.3-0.4,0.5c-0.2,0.1-0.3,0.2-0.5,0.3c0.3,0,0.5,0,0.8,0.1s0.5,0.2,0.6,0.3
		c0.2,0.1,0.3,0.3,0.5,0.6C27.1,31.9,27.2,32.2,27.2,32.5z M24.8,28.8c0-0.5-0.2-0.8-0.5-0.9s-0.7-0.2-1.1-0.1l-1.3,0.1l0.3,2.6
		l1.2-0.1c0.2,0,0.4-0.1,0.6-0.1c0.2-0.1,0.3-0.2,0.5-0.3s0.2-0.3,0.3-0.5C24.8,29.3,24.9,29.1,24.8,28.8z M25.7,32.7
		c0-0.3-0.1-0.5-0.2-0.6c-0.1-0.2-0.2-0.3-0.4-0.3c-0.1-0.1-0.3-0.1-0.5-0.1c-0.2,0-0.4,0-0.6,0l-1.7,0.2l0.3,2.6l1.6-0.2
		c0.5,0,0.9-0.2,1.2-0.4C25.6,33.6,25.7,33.2,25.7,32.7z"/>
	<path class="st5" d="M36.8,34.3l-1.6,0.2L34,32.8c-0.3-0.3-0.5-0.6-0.8-0.9c-0.3-0.2-0.6-0.5-1-0.6L31,31.4l0.3,3.4l-1.4,0.1
		l-0.9-9.1l2.6-0.3c1.2-0.1,2,0,2.6,0.4c0.6,0.4,0.9,1,1,2c0.1,0.7,0,1.3-0.3,1.7c-0.3,0.5-0.7,0.8-1.1,1.1c0.3,0.1,0.5,0.3,0.7,0.5
		c0.2,0.2,0.4,0.4,0.7,0.7L36.8,34.3z M33.8,28.3c-0.1-0.6-0.3-1-0.6-1.2c-0.3-0.2-0.8-0.2-1.4-0.2L30.6,27l0.3,3.2l1.1-0.1
		c0.3,0,0.5-0.1,0.8-0.1c0.2-0.1,0.4-0.2,0.6-0.3c0.2-0.1,0.3-0.3,0.4-0.5C33.8,28.8,33.9,28.6,33.8,28.3z"/>
	<path class="st5" d="M43.5,32.3l0,1.3l-4.9,0.5L37.7,25l4.7-0.5l0.1,1.3l-3.3,0.3l0.2,2.5l2.9-0.3l0.1,1.3L39.7,30l0.3,2.7
		L43.5,32.3L43.5,32.3z"/>
	<path class="st5" d="M52.1,32.5c-0.3,0.1-0.7,0.2-1.2,0.4c-0.4,0.1-0.9,0.2-1.4,0.3c-0.6,0.1-1.1,0-1.6-0.1c-0.5-0.1-1-0.3-1.4-0.6
		c-0.4-0.3-0.8-0.8-1.1-1.3c-0.3-0.6-0.5-1.3-0.5-2.1s0-1.6,0.1-2.2c0.2-0.6,0.4-1.2,0.8-1.6c0.4-0.4,0.8-0.8,1.3-1
		c0.5-0.2,1.1-0.4,1.7-0.5c0.5,0,0.9-0.1,1.3,0c0.4,0,0.7,0.1,0.9,0.2l0,1.3c-0.3-0.1-0.7-0.1-1-0.1c-0.4,0-0.7,0-1.1,0
		c-0.4,0-0.8,0.1-1.1,0.3s-0.6,0.4-0.9,0.7c-0.2,0.3-0.4,0.7-0.5,1.1s-0.1,1-0.1,1.6c0.1,0.6,0.2,1.1,0.4,1.5
		c0.2,0.4,0.4,0.7,0.7,0.9c0.3,0.2,0.6,0.4,0.9,0.5c0.3,0.1,0.7,0.1,1,0.1c0.2,0,0.5-0.1,0.7-0.1s0.4-0.1,0.5-0.1l-0.2-2.4l-1.8,0.2
		l0-1.3l3.2-0.3L52.1,32.5L52.1,32.5z"/>
	<path class="st5" d="M60,30.7l0,1.3l-4.9,0.5l-0.9-9.1l4.7-0.5l0.1,1.3l-3.3,0.3l0.2,2.5l2.9-0.3l0.1,1.3l-2.9,0.3l0.3,2.7L60,30.7
		L60,30.7z"/>
	<path class="st5" d="M69,31.1l-1.4,0.1L63.1,25l0.7,6.6l-1.4,0.1l-0.9-9.1l1.6-0.2l4.3,6l-0.6-6.3l1.4-0.1L69,31.1L69,31.1z"/>
	<path class="st5" d="M76.5,29l0.1,1.3l-5.4,0.5l-0.1-1.2l2.8-6.9l-3.4,0.3l-0.1-1.3l5.1-0.5l0.1,1.2l-2.8,6.9L76.5,29z"/>
	<path class="st5" d="M83.6,28.4l0,1.3l-4.9,0.5l-0.9-9.1l4.7-0.5l0.1,1.3l-3.3,0.3l0.2,2.5l2.9-0.3l0.1,1.3L79.8,26l0.3,2.7
		L83.6,28.4L83.6,28.4z"/>
	<path class="st5" d="M92.8,28.7l-1.6,0.2L90,27.3c-0.3-0.3-0.5-0.6-0.8-0.9s-0.6-0.5-1-0.6L87,25.9l0.3,3.4l-1.4,0.1L85,20.4
		l2.6-0.3c1.2-0.1,2,0,2.6,0.4c0.6,0.4,0.9,1,1,2c0.1,0.7,0,1.3-0.3,1.7c-0.3,0.5-0.7,0.8-1.1,1.1c0.3,0.1,0.5,0.3,0.7,0.5
		c0.2,0.2,0.4,0.4,0.7,0.7L92.8,28.7z M89.8,22.8c-0.1-0.6-0.3-1-0.6-1.2c-0.3-0.2-0.8-0.2-1.4-0.2l-1.2,0.1l0.3,3.2l1.1-0.1
		c0.3,0,0.5-0.1,0.8-0.1c0.2-0.1,0.4-0.2,0.6-0.3c0.2-0.1,0.3-0.3,0.4-0.5C89.8,23.3,89.9,23.1,89.8,22.8z"/>
</g>
<g>
	<path class="st6" d="M31.9,34.1l-0.5,13.5l-4,0.4l-2.6-7.8l-1.2,8.1l-4,0.4l-3-13.2l-0.1-0.6l3.1-0.3l1.9,10.8l1.2-7.9l3.6-0.3
		l2.6,7.6l-0.1-11l3.1-0.3L31.9,34.1z"/>
	<path class="st6" d="M43.4,46.5c-0.5,0.1-1,0.3-1.6,0.4c-0.6,0.1-1.5-0.1-2-0.8c-0.6,0.5-1.5,1.1-2.6,1.2c-1.5,0.1-3.1-0.4-3.4-2.9
		c-0.2-2.3,1.1-3.4,3.5-3.6l1.6-0.1L38.9,40c-0.1-1.1-0.8-1.5-1.9-1.4c-0.9,0.1-2.2,0.5-2.8,0.7L34.1,37c0.6-0.2,1.6-0.6,2.9-0.7
		c3-0.3,4.6,0.8,4.8,3.6l0.4,4.3c0,0.4,0.2,0.5,0.5,0.5c0.2,0,0.3-0.1,0.5-0.1L43.4,46.5z M39.2,42.4L38,42.5
		c-0.8,0.1-1.3,0.4-1.2,1.5c0.1,0.9,0.5,1.2,1.1,1.1c0.4,0,1-0.3,1.4-0.6L39.2,42.4z"/>
	<path class="st6" d="M53.3,45.6l-2.9,0.3l-0.7-7.4c-0.1-0.6-0.3-0.9-0.9-0.8c-0.5,0-1.2,0.5-1.9,1l0.7,7.5l-2.9,0.3l-1.3-13.8
		l1.8-0.8l1-0.1l0.4,4.7c0.7-0.6,1.8-1.3,2.8-1.4c1.8-0.2,2.8,0.8,3,2.7L53.3,45.6z"/>
	<path class="st6" d="M58.5,45.1l-2.9,0.3l-1.3-13.8l1.8-0.8l1-0.1L58.5,45.1z"/>
	<path class="st6" d="M67,30.5l-0.1,1.7C66.6,32,66.3,32,66,31.9c-0.3,0-0.6-0.1-0.8,0c-0.6,0.1-1.1,0.3-1.5,0.7
		c-0.3,0.4-0.5,1-0.4,1.7c0,0.4,0.2,0.8,0.4,1.1c0.2,0.3,0.5,0.6,0.8,0.8c0.3,0.2,0.6,0.5,1,0.7c0.3,0.2,0.7,0.5,1,0.8
		c0.3,0.3,0.6,0.7,0.8,1.1c0.2,0.4,0.4,0.9,0.4,1.5c0.1,1.3-0.1,2.4-0.8,3.2c-0.7,0.8-1.6,1.3-2.8,1.4c-0.5,0-1,0-1.4,0
		c-0.4-0.1-0.8-0.2-1.1-0.2l0.1-1.7c0.4,0.1,0.7,0.2,1.1,0.3c0.3,0.1,0.7,0.1,1.1,0.1c0.7-0.1,1.3-0.3,1.6-0.8
		c0.3-0.5,0.5-1.1,0.4-1.8c0-0.4-0.2-0.8-0.4-1.1c-0.2-0.3-0.5-0.6-0.8-0.8c-0.3-0.2-0.6-0.5-1-0.7c-0.3-0.2-0.7-0.5-1-0.8
		c-0.3-0.3-0.6-0.6-0.8-1c-0.2-0.4-0.4-0.9-0.4-1.5c-0.1-0.6,0-1.2,0.2-1.7c0.2-0.5,0.4-1,0.7-1.3c0.3-0.4,0.7-0.7,1.2-0.9
		c0.5-0.2,1-0.4,1.5-0.4c0.4,0,0.7,0,1.1,0C66.5,30.3,66.8,30.4,67,30.5z"/>
	<path class="st6" d="M74.6,32.9l-0.2,1.5L72,34.7l0,6.4c0,0.1,0,0.1,0,0.2c0,0.1,0,0.1,0,0.2c0,0.4,0.1,0.7,0.3,0.9
		c0.2,0.2,0.4,0.2,0.6,0.2c0.2,0,0.5-0.1,0.7-0.2c0.3-0.1,0.5-0.2,0.7-0.2l0.2,1.5c-0.3,0.1-0.5,0.2-0.8,0.3
		C73.6,43.9,73.3,44,73,44c-0.4,0-0.8,0-1.1-0.1s-0.6-0.2-0.9-0.5c-0.2-0.2-0.4-0.5-0.6-0.9c-0.1-0.4-0.2-0.9-0.2-1.4l0-6.3L68.5,35
		l0-1.5l1.7-0.2l0-2.6l0.9-0.5l0.9-0.1l0,3L74.6,32.9z"/>
	<path class="st6" d="M78.1,32.6l0.1,10.7l-1.8,0.2l-0.1-10.7L78.1,32.6z M78.4,29.8c0,0.4,0,0.6-0.2,0.9c-0.2,0.2-0.5,0.4-0.8,0.4
		c-0.4,0-0.6,0-0.9-0.2C76.2,30.6,76,30.3,76,30c0-0.4,0-0.6,0.2-0.9c0.2-0.2,0.5-0.4,0.8-0.4c0.4,0,0.6,0,0.9,0.2
		C78.2,29.1,78.3,29.4,78.4,29.8z"/>
	<path class="st6" d="M92.7,33.6l0,8.4L91,42.1l0-8.2c0-0.1,0-0.1,0-0.2c0,0,0-0.1,0-0.1c0-0.3-0.1-0.4-0.2-0.5
		C90.7,33,90.5,33,90.3,33c-0.2,0-0.4,0.1-0.6,0.2c-0.2,0.1-0.4,0.3-0.6,0.5c-0.2,0.2-0.4,0.5-0.7,0.7c-0.2,0.3-0.4,0.6-0.7,0.9
		l0,7.1l-1.8,0.2l0-8.2c0-0.1,0-0.1,0-0.2c0,0,0-0.1,0-0.1c0-0.3-0.1-0.4-0.2-0.5c-0.1-0.1-0.2-0.1-0.4-0.1c-0.2,0-0.4,0.1-0.6,0.2
		c-0.2,0.1-0.4,0.3-0.6,0.5c-0.2,0.2-0.4,0.5-0.7,0.7c-0.2,0.3-0.4,0.6-0.7,0.9l0,7.1l-1.8,0.2l-0.1-10.7l1.5-0.1l0.2,1.9
		c0.4-0.6,0.9-1.2,1.4-1.6c0.5-0.4,1-0.7,1.6-0.8c0.5,0,1,0.1,1.4,0.3c0.4,0.3,0.6,0.8,0.7,1.5c0.4-0.6,0.9-1.1,1.3-1.5
		c0.5-0.4,1-0.7,1.5-0.7c0.6-0.1,1.1,0.1,1.5,0.4C92.5,32.1,92.7,32.7,92.7,33.6z"/>
	<path class="st6" d="M107.3,32.3l0,8.4l-1.8,0.2l0-8.2c0-0.1,0-0.1,0-0.2c0,0,0-0.1,0-0.1c0-0.3-0.1-0.4-0.2-0.5
		c-0.1-0.1-0.2-0.1-0.4-0.1c-0.2,0-0.4,0.1-0.6,0.2c-0.2,0.1-0.4,0.3-0.6,0.5c-0.2,0.2-0.4,0.5-0.7,0.7c-0.2,0.3-0.4,0.6-0.7,0.9
		l0,7.1l-1.8,0.2l0-8.2c0-0.1,0-0.1,0-0.2c0,0,0-0.1,0-0.1c0-0.3-0.1-0.4-0.2-0.5c-0.1-0.1-0.2-0.1-0.4-0.1c-0.2,0-0.4,0.1-0.6,0.2
		c-0.2,0.1-0.4,0.3-0.6,0.5c-0.2,0.2-0.4,0.5-0.7,0.7c-0.2,0.3-0.4,0.6-0.7,0.9l0,7.1l-1.8,0.2L95.7,31l1.5-0.1l0.2,1.9
		c0.4-0.6,0.9-1.2,1.4-1.6c0.5-0.4,1-0.7,1.6-0.8c0.5,0,1,0.1,1.4,0.3c0.4,0.3,0.6,0.8,0.7,1.5c0.4-0.6,0.9-1.1,1.3-1.5
		c0.5-0.4,1-0.7,1.5-0.7c0.6-0.1,1.1,0.1,1.5,0.4C107.1,30.7,107.3,31.4,107.3,32.3z"/>
	<path class="st6" d="M116.5,31.5c0,0.5,0,0.9-0.1,1.4s-0.4,0.8-0.8,1.2c-0.4,0.4-0.9,0.7-1.5,1c-0.6,0.3-1.4,0.5-2.4,0.7l0,0.3
		c0,0.5,0.1,1,0.2,1.3c0.1,0.4,0.3,0.6,0.4,0.8c0.2,0.2,0.4,0.3,0.6,0.4c0.2,0.1,0.5,0.1,0.8,0.1c0.4,0,0.8-0.2,1.2-0.4
		c0.4-0.2,0.9-0.5,1.2-0.7l0.1,1.6c-0.4,0.2-0.8,0.5-1.2,0.7c-0.4,0.2-0.9,0.4-1.5,0.4c-0.5,0-1,0-1.4-0.1c-0.4-0.1-0.8-0.3-1.2-0.6
		s-0.6-0.7-0.9-1.3c-0.2-0.5-0.4-1.2-0.4-2c-0.1-1.1-0.1-2,0.1-2.9c0.2-0.9,0.4-1.6,0.8-2.2c0.4-0.6,0.8-1.1,1.3-1.4
		c0.5-0.4,1.1-0.6,1.7-0.6c0.8-0.1,1.5,0.1,2,0.5C116.2,30.1,116.5,30.7,116.5,31.5z M114.9,31.7c-0.1-0.8-0.5-1.2-1.2-1.2
		c-0.6,0.1-1,0.4-1.4,1c-0.4,0.6-0.6,1.5-0.6,2.8c1.2-0.3,2.1-0.6,2.6-1.1C114.8,32.8,115,32.3,114.9,31.7z"/>
	<path class="st6" d="M125.5,30.6l0,8.4l-1.8,0.2l0-8.2c0-0.1,0-0.1,0-0.2c0,0,0-0.1,0-0.1c0-0.3-0.1-0.4-0.2-0.5
		c-0.1-0.1-0.2-0.1-0.4-0.1c-0.2,0-0.4,0.1-0.6,0.2c-0.2,0.1-0.5,0.3-0.7,0.6c-0.2,0.2-0.5,0.5-0.7,0.8c-0.2,0.3-0.5,0.6-0.7,0.9
		l0,6.9l-1.8,0.2l-0.1-10.7l1.5-0.1l0.2,2c0.4-0.7,0.9-1.2,1.4-1.7s1.1-0.8,1.7-0.8c0.6-0.1,1.1,0.1,1.5,0.4
		C125.3,29,125.5,29.7,125.5,30.6z"/>
</g>
</svg>
